<svg viewBox="0 0 1920 1080" xmlns="http://www.w3.org/2000/svg">
  <rect width="1920" height="1080" fill="#F2F2F2" />
  
  <g id="thin-grid-lines" stroke="#0A1E3D" stroke-width="1" opacity="0.1">
    <line id="v-thin-1" x1="60" y1="0" x2="60" y2="1080" />
    <line id="v-thin-2" x1="120" y1="0" x2="120" y2="1080" />
    <line id="v-thin-3" x1="180" y1="0" x2="180" y2="1080" />
    <line id="v-thin-5" x1="300" y1="0" x2="300" y2="1080" />
    <line id="v-thin-6" x1="360" y1="0" x2="360" y2="1080" />
    <line id="v-thin-7" x1="420" y1="0" x2="420" y2="1080" />
    <line id="v-thin-9" x1="540" y1="0" x2="540" y2="1080" />
    <line id="v-thin-10" x1="600" y1="0" x2="600" y2="1080" />
    <line id="v-thin-11" x1="660" y1="0" x2="660" y2="1080" />
    <line id="v-thin-13" x1="780" y1="0" x2="780" y2="1080" />
    <line id="v-thin-14" x1="840" y1="0" x2="840" y2="1080" />
    <line id="v-thin-15" x1="900" y1="0" x2="900" y2="1080" />
    <line id="v-thin-17" x1="1020" y1="0" x2="1020" y2="1080" />
    <line id="v-thin-18" x1="1080" y1="0" x2="1080" y2="1080" />
    <line id="v-thin-19" x1="1140" y1="0" x2="1140" y2="1080" />
    <line id="v-thin-21" x1="1260" y1="0" x2="1260" y2="1080" />
    <line id="v-thin-22" x1="1320" y1="0" x2="1320" y2="1080" />
    <line id="v-thin-23" x1="1380" y1="0" x2="1380" y2="1080" />
    <line id="v-thin-25" x1="1500" y1="0" x2="1500" y2="1080" />
    <line id="v-thin-26" x1="1560" y1="0" x2="1560" y2="1080" />
    <line id="v-thin-27" x1="1620" y1="0" x2="1620" y2="1080" />
    <line id="v-thin-29" x1="1740" y1="0" x2="1740" y2="1080" />
    <line id="v-thin-30" x1="1800" y1="0" x2="1800" y2="1080" />
    <line id="v-thin-31" x1="1860" y1="0" x2="1860" y2="1080" />
    <line id="h-thin-1" x1="0" y1="60" x2="1920" y2="60" />
    <line id="h-thin-2" x1="0" y1="120" x2="1920" y2="120" />
    <line id="h-thin-3" x1="0" y1="180" x2="1920" y2="180" />
    <line id="h-thin-5" x1="0" y1="300" x2="1920" y2="300" />
    <line id="h-thin-6" x1="0" y1="360" x2="1920" y2="360" />
    <line id="h-thin-7" x1="0" y1="420" x2="1920" y2="420" />
    <line id="h-thin-9" x1="0" y1="540" x2="1920" y2="540" />
    <line id="h-thin-10" x1="0" y1="600" x2="1920" y2="600" />
    <line id="h-thin-11" x1="0" y1="660" x2="1920" y2="660" />
    <line id="h-thin-13" x1="0" y1="780" x2="1920" y2="780" />
    <line id="h-thin-14" x1="0" y1="840" x2="1920" y2="840" />
    <line id="h-thin-15" x1="0" y1="900" x2="1920" y2="900" />
    <line id="h-thin-17" x1="0" y1="1020" x2="1920" y2="1020" />
  </g>
  
  <g id="thick-grid-lines" stroke="#0A1E3D" stroke-width="3" opacity="0.2">
    <line id="v-thick-1" x1="240" y1="0" x2="240" y2="1080" />
    <line id="v-thick-2" x1="480" y1="0" x2="480" y2="1080" />
    <line id="v-thick-3" x1="720" y1="0" x2="720" y2="1080" />
    <line id="v-thick-4" x1="960" y1="0" x2="960" y2="1080" />
    <line id="v-thick-5" x1="1200" y1="0" x2="1200" y2="1080" />
    <line id="v-thick-6" x1="1440" y1="0" x2="1440" y2="1080" />
    <line id="v-thick-7" x1="1680" y1="0" x2="1680" y2="1080" />
    <line id="h-thick-1" x1="0" y1="240" x2="1920" y2="240" />
    <line id="h-thick-2" x1="0" y1="480" x2="1920" y2="480" />
    <line id="h-thick-3" x1="0" y1="720" x2="1920" y2="720" />
    <line id="h-thick-4" x1="0" y1="960" x2="1920" y2="960" />
  </g>
  
  <g id="intersections" stroke="#0A1E3D" stroke-width="2" opacity="0.3">
    <line x1="230" y1="240" x2="250" y2="240" />
    <line x1="240" y1="230" x2="240" y2="250" />
    <line x1="230" y1="480" x2="250" y2="480" />
    <line x1="240" y1="470" x2="240" y2="490" />
    <line x1="230" y1="720" x2="250" y2="720" />
    <line x1="240" y1="710" x2="240" y2="730" />
    <line x1="230" y1="960" x2="250" y2="960" />
    <line x1="240" y1="950" x2="240" y2="970" />
    <line x1="470" y1="240" x2="490" y2="240" />
    <line x1="480" y1="230" x2="480" y2="250" />
    <line x1="470" y1="480" x2="490" y2="480" />
    <line x1="480" y1="470" x2="480" y2="490" />
    <line x1="470" y1="720" x2="490" y2="720" />
    <line x1="480" y1="710" x2="480" y2="730" />
    <line x1="470" y1="960" x2="490" y2="960" />
    <line x1="480" y1="950" x2="480" y2="970" />
    <line x1="710" y1="240" x2="730" y2="240" />
    <line x1="720" y1="230" x2="720" y2="250" />
    <line x1="710" y1="480" x2="730" y2="480" />
    <line x1="720" y1="470" x2="720" y2="490" />
    <line x1="710" y1="720" x2="730" y2="720" />
    <line x1="720" y1="710" x2="720" y2="730" />
    <line x1="710" y1="960" x2="730" y2="960" />
    <line x1="720" y1="950" x2="720" y2="970" />
    <line x1="950" y1="240" x2="970" y2="240" />
    <line x1="960" y1="230" x2="960" y2="250" />
    <line x1="950" y1="480" x2="970" y2="480" />
    <line x1="960" y1="470" x2="960" y2="490" />
    <line x1="950" y1="720" x2="970" y2="720" />
    <line x1="960" y1="710" x2="960" y2="730" />
    <line x1="950" y1="960" x2="970" y2="960" />
    <line x1="960" y1="950" x2="960" y2="970" />
    <line x1="1190" y1="240" x2="1210" y2="240" />
    <line x1="1200" y1="230" x2="1200" y2="250" />
    <line x1="1190" y1="480" x2="1210" y2="480" />
    <line x1="1200" y1="470" x2="1200" y2="490" />
    <line x1="1190" y1="720" x2="1210" y2="720" />
    <line x1="1200" y1="710" x2="1200" y2="730" />
    <line x1="1190" y1="960" x2="1210" y2="960" />
    <line x1="1200" y1="950" x2="1200" y2="970" />
    <line x1="1430" y1="240" x2="1450" y2="240" />
    <line x1="1440" y1="230" x2="1440" y2="250" />
    <line x1="1430" y1="480" x2="1450" y2="480" />
    <line x1="1440" y1="470" x2="1440" y2="490" />
    <line x1="1430" y1="720" x2="1450" y2="720" />
    <line x1="1440" y1="710" x2="1440" y2="730" />
    <line x1="1430" y1="960" x2="1450" y2="960" />
    <line x1="1440" y1="950" x2="1440" y2="970" />
    <line x1="1670" y1="240" x2="1690" y2="240" />
    <line x1="1680" y1="230" x2="1680" y2="250" />
    <line x1="1670" y1="480" x2="1690" y2="480" />
    <line x1="1680" y1="470" x2="1680" y2="490" />
    <line x1="1670" y1="720" x2="1690" y2="720" />
    <line x1="1680" y1="710" x2="1680" y2="730" />
    <line x1="1670" y1="960" x2="1690" y2="960" />
    <line x1="1680" y1="950" x2="1680" y2="970" />
  </g>
</svg>